<svg xmlns="http://www.w3.org/2000/svg" xmlns:xlink="http://www.w3.org/1999/xlink" width="1280" height="40" viewBox="0 0 1280 40">
  <defs>
    <clipPath id="clip-path">
      <rect id="Rectangle_235" data-name="Rectangle 235" width="17" height="20" fill="none" stroke="#707070" stroke-width="1"/>
    </clipPath>
    <clipPath id="clip-path-2">
      <rect id="Rectangle_243" data-name="Rectangle 243" width="17.026" height="19.199" transform="translate(0 0)" fill="none" stroke="#707070" stroke-width="1"/>
    </clipPath>
  </defs>
  <g id="Group_144" data-name="Group 144" transform="translate(-80 -612)">
    <g id="Rectangle_207" data-name="Rectangle 207" transform="translate(80 612)" fill="#fff" stroke="#0d7ae6" stroke-width="1">
      <rect width="1280" height="40" rx="10" stroke="none"/>
      <rect x="0.5" y="0.5" width="1279" height="39" rx="9.5" fill="none"/>
    </g>
    <text id="_2025_05_13_09:10" data-name="2025 05 13  09:10" transform="translate(273 638)" stroke="rgba(0,0,0,0)" stroke-width="1" font-size="16" font-family="OpenSans, Open Sans"><tspan x="0" y="0" xml:space="preserve">2025 05 13  09:10</tspan></text>
    <text id="_15_W" data-name="15 W" transform="translate(462 638)" stroke="rgba(0,0,0,0)" stroke-width="1" font-size="16" font-family="OpenSans, Open Sans"><tspan x="0" y="0">15 W</tspan></text>
    <text id="warehouse" transform="translate(130 638)" stroke="rgba(0,0,0,0)" stroke-width="1" font-size="16" font-family="OpenSans, Open Sans"><tspan x="0" y="0">warehouse</tspan></text>
    <text id="_1.15_kWh" data-name="1.15 kWh" transform="translate(618 638)" stroke="rgba(0,0,0,0)" stroke-width="1" font-size="16" font-family="OpenSans, Open Sans"><tspan x="0" y="0">1.15 kWh</tspan></text>
    <text id="_1.00" data-name="1.00" transform="translate(772 638)" stroke="rgba(0,0,0,0)" stroke-width="1" font-size="16" font-family="OpenSans, Open Sans"><tspan x="0" y="0">1.00</tspan></text>
    <text id="_2.15" data-name="2.15" transform="translate(938 638)" stroke="rgba(0,0,0,0)" stroke-width="1" font-size="16" font-family="OpenSans, Open Sans"><tspan x="0" y="0">2.15</tspan></text>
    <text id="Active" transform="translate(1138 638)" stroke="rgba(0,0,0,0)" stroke-width="1" font-size="16" font-family="OpenSans, Open Sans"><tspan x="0" y="0">Active</tspan></text>
    <g id="Ellipse_1" data-name="Ellipse 1" transform="translate(1122 626)" fill="#42dc37" stroke="#707070" stroke-width="1">
      <circle cx="6" cy="6" r="6" stroke="none"/>
      <circle cx="6" cy="6" r="5.5" fill="none"/>
    </g>
    <g id="ic_Delete" transform="translate(1252 623)">
      <g id="Group_132" data-name="Group 132" clip-path="url(#clip-path)">
        <path id="Path_231" data-name="Path 231" d="M8.5,8.416a.594.594,0,0,0-.593.594v7.426a.593.593,0,1,0,1.186,0V9.01A.594.594,0,0,0,8.5,8.416" fill="#2b2d3a" stroke="#707070" stroke-width="1"/>
        <path id="Path_232" data-name="Path 232" d="M11.465,8.416a.594.594,0,0,0-.593.594v7.426a.593.593,0,1,0,1.186,0V9.01a.594.594,0,0,0-.593-.594" fill="#2b2d3a" stroke="#707070" stroke-width="1"/>
        <path id="Path_233" data-name="Path 233" d="M5.535,8.416a.594.594,0,0,0-.593.594v7.426a.593.593,0,1,0,1.186,0V9.01a.594.594,0,0,0-.593-.594" fill="#2b2d3a" stroke="#707070" stroke-width="1"/>
        <path id="Path_234" data-name="Path 234" d="M14.924,1.981H11.352a3.044,3.044,0,0,0-5.705,0H2.075a2.079,2.079,0,0,0-.1,4.156V17.92A2.081,2.081,0,0,0,4.052,20h8.895a2.08,2.08,0,0,0,2.076-2.08V6.137a2.079,2.079,0,0,0-.1-4.156m-1.977,16.83H4.052a.891.891,0,0,1-.889-.891V6.139H13.837V17.92a.892.892,0,0,1-.89.891M8.5,1.188a1.879,1.879,0,0,1,1.52.793H6.979A1.879,1.879,0,0,1,8.5,1.188M14.924,4.95H2.075a.891.891,0,0,1,0-1.781H14.924a.891.891,0,0,1,0,1.781" fill="#2b2d3a" stroke="#707070" stroke-width="1"/>
      </g>
    </g>
    <g id="ic_Choose_file" data-name="ic_Choose file" transform="translate(1298.974 623)">
      <g id="Group_143" data-name="Group 143" clip-path="url(#clip-path-2)">
        <path id="Path_244" data-name="Path 244" d="M13.2,4.6a.6.6,0,0,0-.6-.6h-9a.6.6,0,0,0,0,1.2h9a.6.6,0,0,0,.6-.6" fill="#2b2d3a" stroke="#707070" stroke-width="1"/>
        <g id="Path_245" data-name="Path 245" fill="#2b2d3a">
          <path d="M 7.599999904632568 8.699000358581543 L 3.599999904632568 8.699000358581543 C 3.544859886169434 8.699000358581543 3.5 8.654590606689453 3.5 8.600000381469727 C 3.5 8.54486083984375 3.544859886169434 8.500000953674316 3.599999904632568 8.500000953674316 L 7.599999904632568 8.500000953674316 C 7.655139923095703 8.500000953674316 7.699999809265137 8.54486083984375 7.699999809265137 8.600000381469727 C 7.699999809265137 8.654590606689453 7.655139923095703 8.699000358581543 7.599999904632568 8.699000358581543 Z" stroke="none"/>
          <path d="M 3.599999904632568 8.000000953674316 L 7.599999904632568 8.000000953674316 C 7.930999755859375 8.000000953674316 8.199999809265137 8.269001007080078 8.199999809265137 8.600000381469727 C 8.199999809265137 8.931000709533691 7.930999755859375 9.199000358581543 7.599999904632568 9.199000358581543 L 3.599999904632568 9.199000358581543 C 3.269000053405762 9.199000358581543 3 8.931000709533691 3 8.600000381469727 C 3 8.269001007080078 3.269000053405762 8.000000953674316 3.599999904632568 8.000000953674316 Z" stroke="none" fill="#707070"/>
        </g>
        <path id="Path_246" data-name="Path 246" d="M10.6,18H2.621A1.413,1.413,0,0,1,1.2,16.637V2.563A1.426,1.426,0,0,1,2.677,1.2H13.523A1.426,1.426,0,0,1,15,2.563V8.4a.6.6,0,0,0,1.2,0V2.563A2.624,2.624,0,0,0,13.523,0H2.677A2.624,2.624,0,0,0,0,2.563V16.637A2.609,2.609,0,0,0,2.579,19.2H10.6a.6.6,0,1,0,0-1.2" fill="#2b2d3a" stroke="#707070" stroke-width="1"/>
        <path id="Path_247" data-name="Path 247" d="M16.85,16.832,12.218,12.2h2.795a.6.6,0,0,0,0-1.2H10.77a.593.593,0,0,0-.231.047.605.605,0,0,0-.193.129.617.617,0,0,0-.129.192l0,0a.628.628,0,0,0-.044.231v4.241a.613.613,0,0,0,.6.6.6.6,0,0,0,.6-.6V13.048L16,17.68a.6.6,0,0,0,.848-.848" fill="#2b2d3a" stroke="#707070" stroke-width="1"/>
      </g>
    </g>
  </g>
</svg>
