<svg xmlns="http://www.w3.org/2000/svg" xmlns:xlink="http://www.w3.org/1999/xlink" width="16.041" height="14.545" viewBox="0 0 16.041 14.545">
  <defs>
    <clipPath id="clip-path">
      <rect id="Rectangle_234" data-name="Rectangle 234" width="16.041" height="14.545" transform="translate(0 0)" fill="none"/>
    </clipPath>
  </defs>
  <g id="ic_connceted_error_og" transform="translate(0 0)">
    <g id="Group_131" data-name="Group 131" clip-path="url(#clip-path)">
      <path id="Path_230" data-name="Path 230" d="M15.72,10.939,10.1,1.206a2.391,2.391,0,0,0-4.153,0L.323,10.939A2.4,2.4,0,0,0,2.4,14.545H13.623a2.415,2.415,0,0,0,2.1-3.606m-6.945,1.2A1.032,1.032,0,1,1,8.03,10.4a1.019,1.019,0,0,1,1.015,1.063.927.927,0,0,1-.27.679m.251-6.186c-.015.218-.03.436-.039.653v0L8.865,8.665c-.019.219-.019.42-.019.633a.815.815,0,0,1-.816.794.8.8,0,0,1-.816-.764l-.183-3.24c-.018-.26-.037-.524-.058-.784a1.114,1.114,0,0,1,.794-1.123,1.044,1.044,0,0,1,1.206.585,1.2,1.2,0,0,1,.1.506c-.01.234-.026.46-.042.685" fill="#fc8900"/>
    </g>
  </g>
</svg>
