<svg xmlns="http://www.w3.org/2000/svg" xmlns:xlink="http://www.w3.org/1999/xlink" width="24" height="24" viewBox="0 0 24 24">
  <defs>
    <clipPath id="clip-path">
      <rect id="Rectangle_199" data-name="Rectangle 199" width="24" height="24" fill="#fff"/>
    </clipPath>
  </defs>
  <g id="ic_Login" opacity="0.85">
    <g id="Group_86" data-name="Group 86" clip-path="url(#clip-path)">
      <path id="Path_114" data-name="Path 114" d="M12,0A12,12,0,1,0,24,12,12.013,12.013,0,0,0,12,0m0,22a9.983,9.983,0,0,1-7.7-3.625,8.959,8.959,0,0,1,15.395,0A9.987,9.987,0,0,1,12,22M9,9a3,3,0,1,1,3,3A3,3,0,0,1,9,9m6.475,3.582a5,5,0,1,0-6.95,0A10.926,10.926,0,0,0,3.1,16.542,10,10,0,1,1,22,12a9.93,9.93,0,0,1-1.1,4.541,10.93,10.93,0,0,0-5.423-3.959" fill="#fff"/>
    </g>
  </g>
</svg>
