<svg xmlns="http://www.w3.org/2000/svg" xmlns:xlink="http://www.w3.org/1999/xlink" width="20" height="24" viewBox="0 0 20 24">
  <defs>
    <clipPath id="clip-path">
      <rect id="Rectangle_198" data-name="Rectangle 198" width="20" height="24" fill="#fff"/>
    </clipPath>
  </defs>
  <g id="ic_note" opacity="0.85">
    <g id="Group_84" data-name="Group 84" clip-path="url(#clip-path)">
      <path id="Path_113" data-name="Path 113" d="M19,18H18V10a8.008,8.008,0,0,0-7-7.931V1A1,1,0,0,0,9,1V2.069A8.008,8.008,0,0,0,2,10v8H1a1,1,0,0,0,0,2H6a4,4,0,0,0,8,0h5a1,1,0,0,0,0-2m-9,4a2,2,0,0,1-2-2h4a2,2,0,0,1-2,2M4,18V10a6,6,0,0,1,12,0v8Z" fill="#fff"/>
    </g>
  </g>
</svg>
